<svg width="8" height="12" viewBox="0 0 8 12" fill="none" xmlns="http://www.w3.org/2000/svg">
<path d="M6.39765 1.3041C5.75312 0.739063 4.90234 0.429688 4 0.429688C3.09766 0.429688 2.24687 0.741211 1.60234 1.3041C0.932031 1.89063 0.5625 2.6791 0.5625 3.52344V3.68672C0.5625 3.78125 0.639844 3.85859 0.734375 3.85859H1.76562C1.86016 3.85859 1.9375 3.78125 1.9375 3.68672V3.52344C1.9375 2.57598 2.86348 1.80469 4 1.80469C5.13652 1.80469 6.0625 2.57598 6.0625 3.52344C6.0625 4.1916 5.58984 4.80391 4.85723 5.08535C4.40176 5.25938 4.01504 5.56445 3.73789 5.96406C3.45644 6.37226 3.31035 6.86211 3.31035 7.3584V7.82031C3.31035 7.91484 3.38769 7.99219 3.48223 7.99219H4.51348C4.60801 7.99219 4.68535 7.91484 4.68535 7.82031V7.33262C4.68646 7.12405 4.7504 6.92066 4.86882 6.74897C4.98724 6.57727 5.15465 6.44525 5.34922 6.37012C6.6168 5.88242 7.43535 4.76523 7.43535 3.52344C7.4375 2.6791 7.06797 1.89063 6.39765 1.3041ZM3.14062 10.2266C3.14062 10.4545 3.23117 10.6731 3.39233 10.8342C3.55349 10.9954 3.77208 11.0859 4 11.0859C4.22792 11.0859 4.44651 10.9954 4.60767 10.8342C4.76883 10.6731 4.85937 10.4545 4.85937 10.2266C4.85937 9.99864 4.76883 9.78006 4.60767 9.61889C4.44651 9.45773 4.22792 9.36719 4 9.36719C3.77208 9.36719 3.55349 9.45773 3.39233 9.61889C3.23117 9.78006 3.14062 9.99864 3.14062 10.2266Z" fill="#718096"/>
</svg>
